<svg width="414" height="893" viewBox="0 0 414 893" fill="none" xmlns="http://www.w3.org/2000/svg">
<path d="M396.914 812.573C396.914 799.532 396.914 786.45 396.914 773.408C397.283 769.703 396.457 765.977 394.559 762.776C392.66 759.575 389.788 757.067 386.363 755.62C382.804 754.013 378.825 753.588 375.008 754.406C371.19 755.224 367.734 757.242 365.142 760.167C338.599 786.623 312.055 813.118 285.512 839.654C282.415 842.291 280.271 845.877 279.415 849.857C278.558 853.837 279.036 857.989 280.774 861.67C284.318 869.646 291.325 872.039 299.766 872C325.247 872 350.729 872 376.21 872C390.504 872 396.755 865.419 396.914 850.821C397.034 838.019 396.914 825.296 396.914 812.573Z" fill="black"/>
<path d="M396.914 77.4267C396.914 90.4685 396.914 103.55 396.914 116.592C397.283 120.297 396.457 124.023 394.559 127.224C392.66 130.425 389.788 132.933 386.363 134.38C382.804 135.987 378.825 136.412 375.008 135.594C371.19 134.776 367.734 132.758 365.142 129.833C338.599 103.377 312.055 76.8816 285.512 50.3459C282.415 47.7095 280.271 44.1234 279.415 40.1432C278.558 36.163 279.036 32.0109 280.774 28.3303C284.318 20.3536 291.325 17.9606 299.766 18.0005C325.247 18.0005 350.729 18.0005 376.21 18.0005C390.504 18.0005 396.755 24.5812 396.914 39.1785C397.034 51.9811 396.914 64.7039 396.914 77.4267Z" fill="black"/>
<path d="M17.0859 812.573C17.0859 799.532 17.0859 786.45 17.0859 773.408C16.7171 769.703 17.5425 765.977 19.4412 762.776C21.3399 759.575 24.212 757.067 27.6368 755.62C31.196 754.013 35.1746 753.588 38.9921 754.406C42.8097 755.224 46.2665 757.242 48.8582 760.167C75.4014 786.623 101.945 813.118 128.488 839.654C131.585 842.291 133.729 845.877 134.585 849.857C135.442 853.837 134.964 857.989 133.226 861.67C129.682 869.646 122.675 872.039 114.234 872C88.7527 872 63.2711 872 37.7896 872C23.496 872 17.2451 865.419 17.0859 850.821C16.9664 838.019 17.0859 825.296 17.0859 812.573Z" fill="black"/>
<path d="M17.0859 77.4267C17.0859 90.4685 17.0859 103.55 17.0859 116.592C16.7171 120.297 17.5425 124.023 19.4412 127.224C21.3399 130.425 24.212 132.933 27.6368 134.38C31.196 135.987 35.1746 136.412 38.9921 135.594C42.8097 134.776 46.2665 132.758 48.8582 129.833C75.4014 103.377 101.945 76.8816 128.488 50.3459C131.585 47.7095 133.729 44.1234 134.585 40.1432C135.442 36.163 134.964 32.0109 133.226 28.3303C129.682 20.3536 122.675 17.9606 114.234 18.0005C88.7527 18.0005 63.2711 18.0005 37.7896 18.0005C23.496 18.0005 17.2451 24.5812 17.0859 39.1785C16.9664 51.9811 17.0859 64.7039 17.0859 77.4267Z" fill="black"/>
<path d="M207 207.001H414L207 0.000105481L-0.000435541 207.001H207Z" fill="black"/>
<path d="M207 686H414L207 893.001L-0.000435541 686H207Z" fill="black"/>
<rect y="207" width="414" height="479" fill="black"/>
</svg>
