<svg width="729" height="352" viewBox="0 0 729 352" fill="none" xmlns="http://www.w3.org/2000/svg">
<path d="M363.674 351.794C260.383 351.794 157.092 351.794 53.8013 351.794C14.6018 351.794 0.0979988 337.768 0 298.337C0 216.598 0 134.859 0 53.1195C0 17.612 15.2878 0.643014 50.8614 0.348753C171.596 -0.435942 292.233 0.348753 412.869 0.348753C421.959 0.473833 430.927 2.46183 439.22 6.1901C447.512 9.91837 454.953 15.3078 461.085 22.0259C543.208 104.484 625.559 186.747 708.14 268.813C724.309 284.899 735.383 302.358 724.897 325.997C714.412 349.636 695.498 352.186 673.644 351.99C570.353 351.598 467.062 351.794 363.674 351.794Z" fill="#3F1DA8"/>
</svg>
