<svg width="290" height="290" viewBox="0 0 290 290" fill="none" xmlns="http://www.w3.org/2000/svg">
<path d="M0.211017 143.951C0.211017 111.899 0.211017 79.7495 0.211017 47.6974C-0.695304 38.5918 1.33327 29.4348 5.99952 21.5679C10.6658 13.701 17.7244 7.53779 26.1413 3.98126C34.8885 0.0326371 44.6664 -1.01287 54.0485 0.997258C63.4306 3.00739 71.9261 7.96798 78.2955 15.1554C143.529 80.1742 208.762 145.291 273.996 210.506C281.608 216.985 286.875 225.799 288.98 235.58C291.085 245.362 289.911 255.566 285.64 264.612C276.931 284.216 259.71 290.097 238.965 289.999C176.341 289.999 113.717 289.999 51.0931 289.999C15.9649 289.999 0.602418 273.826 0.211017 237.951C-0.0825336 206.487 0.211017 175.219 0.211017 143.951Z" fill="#3F1DA8"/>
</svg>
