<svg width="1921" height="960" viewBox="0 0 1921 960" fill="none" xmlns="http://www.w3.org/2000/svg">
<path d="M421.674 959.794C318.383 959.794 215.092 959.794 111.801 959.794C72.6018 959.794 58.098 945.768 58 906.337C58 824.598 58 742.859 58 661.119C58 625.612 73.2878 608.643 108.861 608.349C229.596 607.564 350.233 608.349 470.869 608.349C479.959 608.474 488.927 610.462 497.22 614.19C505.512 617.918 512.954 623.308 519.085 630.026C601.208 712.484 683.559 794.747 766.14 876.813C782.309 892.899 793.383 910.358 782.897 933.997C772.412 957.636 753.498 960.186 731.644 959.99C628.353 959.598 525.062 959.794 421.674 959.794Z" fill="#3F1DA8"/>
<path d="M1486.33 959.794C1589.62 959.794 1692.91 959.794 1796.2 959.794C1835.4 959.794 1849.9 945.768 1850 906.337C1850 824.598 1850 742.859 1850 661.119C1850 625.612 1834.71 608.643 1799.14 608.349C1678.4 607.564 1557.77 608.349 1437.13 608.349C1428.04 608.474 1419.07 610.462 1410.78 614.19C1402.49 617.918 1395.05 623.308 1388.92 630.026C1306.79 712.484 1224.44 794.747 1141.86 876.813C1125.69 892.899 1114.62 910.358 1125.1 933.997C1135.59 957.636 1154.5 960.186 1176.36 959.99C1279.65 959.598 1382.94 959.794 1486.33 959.794Z" fill="#3F1DA8"/>
<path d="M58.211 377.951C58.211 345.899 58.211 313.749 58.211 281.697C57.3047 272.592 59.3333 263.435 63.9995 255.568C68.6658 247.701 75.7244 241.538 84.1413 237.981C92.8885 234.033 102.666 232.987 112.048 234.997C121.431 237.007 129.926 241.968 136.295 249.155C201.529 314.174 266.762 379.291 331.996 444.506C339.608 450.985 344.875 459.799 346.98 469.58C349.085 479.362 347.911 489.566 343.64 498.612C334.931 518.216 317.71 524.097 296.965 523.999C234.341 523.999 171.717 523.999 109.093 523.999C73.9649 523.999 58.6024 507.826 58.211 471.951C57.9175 440.487 58.211 409.219 58.211 377.951Z" fill="#3F1DA8"/>
<path d="M1849.79 377.951C1849.79 345.899 1849.79 313.749 1849.79 281.697C1850.7 272.592 1848.67 263.435 1844 255.568C1839.33 247.701 1832.28 241.538 1823.86 237.981C1815.11 234.033 1805.33 232.987 1795.95 234.997C1786.57 237.007 1778.07 241.968 1771.7 249.155C1706.47 314.174 1641.24 379.291 1576 444.506C1568.39 450.985 1563.12 459.799 1561.02 469.58C1558.91 479.362 1560.09 489.566 1564.36 498.612C1573.07 518.216 1590.29 524.097 1611.03 523.999C1673.66 523.999 1736.28 523.999 1798.91 523.999C1834.04 523.999 1849.4 507.826 1849.79 471.951C1850.08 440.487 1849.79 409.219 1849.79 377.951Z" fill="#3F1DA8"/>
<path d="M960.407 -0.000448259H1920.41L960.407 959.999L0.407675 -0.000448259H960.407Z" fill="#3F1DA8"/>
</svg>
